<svg width="28" height="23" viewBox="0 0 28 23" fill="none" xmlns="http://www.w3.org/2000/svg">
<path d="M24 18.005H4C3.46973 18.0045 2.96133 17.7936 2.58637 17.4186C2.21141 17.0437 2.00053 16.5353 2 16.005V2.005C2.00053 1.47473 2.21141 0.966334 2.58637 0.591376C2.96133 0.216418 3.46973 0.00553436 4 0.00500488H24C24.5303 0.00553436 25.0387 0.216418 25.4136 0.591376C25.7886 0.966334 25.9995 1.47473 26 2.005V16.005C25.9992 16.5352 25.7882 17.0434 25.4133 17.4183C25.0384 17.7932 24.5302 18.0042 24 18.005ZM4 2.005V16.005H24V2.005H4Z" fill="#133F42"/>
<path d="M2 20H26V22H2V20Z" fill="#133F42"/>
</svg>
