<svg width="20" height="20" viewBox="0 0 20 20" fill="none" xmlns="http://www.w3.org/2000/svg">
<g clip-path="url(#clip0_492_15)">
<path d="M2.11764 9.75391C2.11764 9.75391 2.90779 10.9147 4.56389 11.8973C4.56389 11.8973 3.36447 1.76051 11.1794 0C9.17721 7.34848 13.7263 9.42086 15.3846 5.53852C18.1538 9.23582 16.0512 12.4615 16.0512 12.4615C17.1867 12.6251 18.1405 11.3846 18.1405 11.3846C18.149 11.5374 18.1538 11.6912 18.1538 11.8462C18.1538 16.3494 14.5033 20 10 20C5.49678 20 1.84619 16.3494 1.84619 11.8462C1.84619 11.1228 1.94088 10.4216 2.11764 9.75391Z" fill="#FF6536"/>
<path d="M18.1405 11.3846C18.1405 11.3846 17.1867 12.6251 16.0512 12.4615C16.0512 12.4615 18.1538 9.23582 15.3846 5.53852C13.7263 9.42086 9.17723 7.34848 11.1795 0C10.7609 0.0942969 10.3684 0.212773 10 0.352266V20C14.5032 20 18.1538 16.3494 18.1538 11.8462C18.1538 11.6912 18.1491 11.5374 18.1405 11.3846Z" fill="#FF421D"/>
<path d="M6.42383 16.4241C6.42383 18.399 8.02484 20 9.99977 20C11.9747 20 13.5757 18.399 13.5757 16.4241C13.5757 15.367 13.1171 14.4171 12.3879 13.7625C11.0053 15.6408 9.03508 12.7915 10.5705 10.7108C10.5705 10.7108 6.42383 11.2305 6.42383 16.4241Z" fill="#FBBF00"/>
<path d="M13.5759 16.4241C13.5759 15.367 13.1173 14.4171 12.3881 13.7625C11.0055 15.6408 9.03531 12.7915 10.5708 10.7108C10.5708 10.7108 10.3455 10.7391 10 10.8482V20C11.9749 20 13.5759 18.399 13.5759 16.4241Z" fill="#FFA900"/>
</g>
<defs>
<clipPath id="clip0_492_15">
<rect width="20" height="20" fill="white"/>
</clipPath>
</defs>
</svg>
