<svg width="16" height="16" viewBox="0 0 16 16" fill="none" xmlns="http://www.w3.org/2000/svg">
<g clip-path="url(#clip0_5105_5914)">
<path d="M7.97337 0C4.5067 0 1.5467 2.24 0.453369 5.33333H15.5467C14.4267 2.24 11.4667 0 7.97337 0Z" fill="#F9F9F9"/>
<path d="M7.97337 16.0001C11.4667 16.0001 14.4267 13.7601 15.52 10.6667H0.453369C1.5467 13.7867 4.5067 16.0001 7.97337 16.0001Z" fill="#ED4C5C"/>
<path d="M0.453333 5.33325C0.16 6.15992 0 7.06659 0 7.99992C0 8.93325 0.16 9.83992 0.453333 10.6666H15.5467C15.84 9.83992 16 8.93325 16 7.99992C16 7.06659 15.84 6.15992 15.5467 5.33325H0.453333Z" fill="#428BC1"/>
</g>
<defs>
<clipPath id="clip0_5105_5914">
<rect width="16" height="16" fill="white"/>
</clipPath>
</defs>
</svg>
