<svg width="17" height="14" viewBox="0 0 17 14" fill="none" xmlns="http://www.w3.org/2000/svg">
<path d="M6.69118 0C6.28165 0 5.8889 0.162683 5.59932 0.452262C5.30974 0.74184 5.14706 1.13459 5.14706 1.54412V2.05882H1.54412C1.13459 2.05882 0.74184 2.22151 0.452262 2.51109C0.162683 2.80066 0 3.19342 0 3.60294L0 5.02765L7.83794 7.11735C8.09831 7.18669 8.37228 7.18669 8.63265 7.11735L16.4706 5.02765V3.60294C16.4706 3.19342 16.3079 2.80066 16.0183 2.51109C15.7287 2.22151 15.336 2.05882 14.9265 2.05882H11.3235V1.54412C11.3235 1.13459 11.1608 0.74184 10.8713 0.452262C10.5817 0.162683 10.1889 0 9.77941 0H6.69118ZM6.69118 1.02941H9.77941C9.91592 1.02941 10.0468 1.08364 10.1434 1.18017C10.2399 1.27669 10.2941 1.40761 10.2941 1.54412V2.05882H6.17647V1.54412C6.17647 1.40761 6.2307 1.27669 6.32722 1.18017C6.42375 1.08364 6.55467 1.02941 6.69118 1.02941Z" fill="#FF4A96"/>
<path d="M0 11.8381C0 12.2477 0.162683 12.6404 0.452262 12.93C0.74184 13.2196 1.13459 13.3823 1.54412 13.3823H14.9265C15.336 13.3823 15.7287 13.2196 16.0183 12.93C16.3079 12.6404 16.4706 12.2477 16.4706 11.8381V6.02197L8.36809 8.18065C8.28108 8.20388 8.1895 8.20388 8.1025 8.18065L0 6.02197V11.8381Z" fill="#FF4A96"/>
</svg>
